<svg  xmlns="http://www.w3.org/2000/svg" xmlns:xlink="http://www.w3.org/1999/xlink" width="886" height="300" viewBox="0 0 910 324"><path transform="translate(0 100)" d="M48.3398,-64.5996Q50.6836,-64.5996 50.6836,-58.3496Q50.8789,-58.3496 50.8789,-56.9824L50.8789,-56.5918Q50.8789,-53.125 51.2695,-45.459L51.4648,-45.459Q64.3555,-45.8496 70.8008,-45.8496L77.0508,-45.8496Q86.8652,-45.8496 87.0117,-43.7012Q87.4023,-42.3828 87.4023,-36.084Q87.0117,-20.3613 86.4258,-14.7949Q86.8164,-14.1602 86.8164,-13.623Q86.8164,-12.0605 84.668,-11.6699L63.3789,-11.6699Q62.4023,-11.6699 53.418,-12.0605L52.2461,-12.0605L52.2461,12.5488Q52.832,14.3066 52.832,14.502L52.832,14.8926Q52.2461,18.0176 50.293,18.0176Q48.1445,17.6758 48.1445,15.8691L48.1445,-12.0605L15.918,-12.0605Q15.918,-10.8398 13.9648,-10.498Q12.6465,-10.498 11.8164,-12.6465Q11.8164,-13.2812 12.0117,-13.623Q11.8164,-19.7754 11.2305,-21.6309L11.2305,-21.8262Q10.6445,-31.5918 10.6445,-35.8887L10.6445,-39.0137Q10.6445,-40.5762 10.8398,-42.7246Q10.6445,-43.0664 10.6445,-43.7012Q11.377,-45.459 12.5977,-45.459Q39.209,-45.2637 47.168,-45.2637L47.168,-45.459Q46.7773,-52.6855 46.7773,-57.1777Q46.1914,-60.0586 46.1914,-62.8418Q46.8262,-64.5996 48.3398,-64.5996ZM51.2695,-41.3574L51.4648,-40.9668L51.4648,-34.9121Q51.4648,-30.4199 51.6602,-22.0215Q52.0508,-21.2891 52.0508,-20.459L52.0508,-16.1621L53.418,-16.1621Q62.4023,-15.7715 63.3789,-15.7715L82.5195,-15.7715Q83.3008,-32.6172 83.3008,-36.4746L83.3008,-39.209L83.1055,-41.5527Q79.8828,-41.748 78.2227,-41.748L71.1914,-41.748Q64.4043,-41.748 51.2695,-41.3574ZM14.9414,-41.3574L14.7461,-39.4043L14.7461,-35.3027Q14.7461,-28.2715 15.918,-18.1152L15.918,-16.1621L47.9492,-16.1621L47.9492,-20.0684Q47.9492,-20.8984 47.5586,-21.6309Q47.3633,-30.6152 47.3633,-35.498L47.3633,-39.7949L47.168,-41.1621L46.1914,-41.1621Q35.3516,-41.1621 14.9414,-41.3574Z"></path><path transform="translate(100 100)" d="M45.3125,-64.0625Q46.8262,-64.0625 47.8516,-61.1328Q50.2441,-57.8125 51.5625,-56.6406Q51.5625,-56.1035 52.7344,-55.0781Q53.9062,-53.8086 53.9062,-52.9297L53.9062,-52.3438Q70.2148,-53.3203 85.3516,-53.5156Q87.1094,-52.8809 87.1094,-51.3672Q87.1094,-49.2188 82.0312,-49.2188L74.6094,-49.2188L75,-48.4375Q75,-46.2402 67.5781,-35.7422Q66.0645,-34.7656 60.1562,-26.7578Q56.9824,-23.877 56.4453,-22.4609Q56.1523,-22.4609 48.8281,-14.6484L48.8281,-14.4531Q49.1211,-14.4531 55.8594,-9.375Q60.0098,-7.27539 63.8672,-4.29688Q69.873,-0.439453 81.6406,5.85938Q82.0801,5.85938 88.0859,9.375Q88.8672,10.6934 88.8672,11.5234Q88.2324,13.2812 86.7188,13.2812Q86.3281,13.2812 83.0078,11.3281Q82.2266,11.3281 81.4453,10.3516Q68.6035,3.95508 56.8359,-4.10156Q53.0273,-6.44531 52.7344,-6.44531Q52.1973,-6.98242 45.8984,-11.7188L45.5078,-11.7188Q39.2578,-5.9082 35.3516,-3.32031Q34.7168,-2.09961 28.7109,1.5625Q26.0742,3.4668 22.0703,5.46875Q15.332,10.4492 13.8672,10.5469L13.6719,10.5469Q11.5234,10.2051 11.5234,8.39844Q11.5234,6.88477 15.0391,5.46875Q15.6738,4.54102 22.2656,0.585938Q22.6074,0.585938 26.5625,-1.95312Q31.0059,-4.39453 33.5938,-7.22656Q34.1797,-7.22656 38.8672,-11.3281Q42.3828,-14.4531 42.3828,-14.6484Q38.1348,-17.8711 33.9844,-22.4609Q33.5938,-22.5098 29.4922,-27.1484Q22.4609,-34.3262 22.4609,-36.9141Q23.0957,-38.6719 24.6094,-38.6719Q25.8789,-38.6719 26.9531,-36.3281Q30.5664,-31.7383 35.1562,-27.1484Q39.1602,-22.9004 39.4531,-22.8516Q39.4531,-22.5098 44.3359,-18.3594Q45.3125,-17.8223 45.3125,-17.1875Q45.5078,-17.1875 47.6562,-19.5312Q51.2207,-22.9004 56.6406,-29.2969Q59.8145,-32.8613 63.8672,-38.2812Q64.7949,-38.2812 68.5547,-44.5312Q70.2637,-47.9004 71.0938,-48.8281L71.0938,-49.0234Q43.1641,-48.0469 43.1641,-47.4609Q21.9238,-47.4609 11.7188,-46.6797Q9.96094,-47.3145 9.96094,-48.8281Q9.96094,-51.1719 16.7969,-51.1719Q31.6895,-51.5625 42.3828,-51.5625Q43.8477,-51.9531 49.4141,-52.3438Q47.2656,-55.2734 44.7266,-58.0078Q43.457,-60.6445 43.1641,-61.9141Q43.5059,-64.0625 45.3125,-64.0625Z"></path><path transform="translate(200 100)" d="M88.2812,16.0156Q86.4746,16.0156 81.25,12.5Q80.6152,12.5 77.1484,9.96094Q76.1719,9.96094 75.7812,8.00781L75.7812,7.8125Q76.123,5.66406 77.9297,5.66406Q78.3691,5.66406 82.0312,8.20312Q82.5195,8.64258 85.1562,9.96094Q85.1562,10.2051 86.5234,10.9375Q86.9141,10.9375 87.3047,-21.4844Q86.9141,-49.9023 86.9141,-61.1328Q79.541,-61.1328 61.1328,-60.7422L59.5703,-60.7422Q59.1797,-60.7422 57.6172,-60.3516Q23.1934,-59.5703 13.6719,-59.5703Q13.6719,-34.3262 13.8672,-31.4453Q13.6719,-26.8066 13.6719,-11.3281Q13.6719,1.85547 13.4766,12.6953Q12.8418,14.4531 11.3281,14.4531Q9.375,13.8672 9.375,12.5Q9.57031,1.07422 9.57031,-2.92969Q9.57031,-27.002 9.76562,-31.25Q9.57031,-34.1797 9.57031,-46.3867L9.57031,-59.9609Q9.57031,-60.1562 9.17969,-61.5234Q9.17969,-63.6719 12.5,-63.6719Q22.8516,-63.6719 57.2266,-64.4531Q58.4961,-64.8438 58.9844,-64.8438L61.3281,-64.8438Q78.125,-65.2344 80.0781,-65.2344L88.8672,-65.2344Q91.0156,-64.8926 91.0156,-63.0859Q91.0156,-49.0234 91.4062,-21.4844Q91.4062,15.625 89.6484,15.625L88.2812,16.0156ZM19.1406,1.95312Q17.5781,1.95312 17.1875,-0.195312Q17.1875,-1.2207 19.3359,-3.32031Q21.0449,-6.39648 24.0234,-10.7422Q24.0234,-11.377 27.1484,-15.2344Q27.6855,-17.334 29.4922,-19.5312Q31.0547,-21.7285 33.0078,-26.3672Q31.3477,-30.8105 29.2969,-33.7891Q28.5156,-37.1094 21.6797,-46.2891Q20.7031,-47.3145 20.7031,-48.2422Q20.7031,-49.8047 22.8516,-50.1953Q24.5605,-50.1953 27.1484,-45.7031Q30.6641,-40.9668 30.6641,-40.4297Q32.373,-37.3047 33.3984,-34.7656Q34.9121,-32.8125 35.1562,-31.4453L35.3516,-31.4453Q35.3516,-32.0312 36.7188,-35.9375Q37.207,-37.9883 38.0859,-39.4531Q39.9902,-45.5566 41.2109,-54.2969Q41.4062,-54.4434 41.9922,-57.2266Q43.0176,-58.0078 43.75,-58.0078Q45.7031,-57.4219 45.7031,-56.0547Q45.7031,-54.9805 44.7266,-50Q43.9453,-46.5332 43.9453,-45.3125Q43.6035,-45.0684 42.5781,-39.8438Q42.334,-39.8438 41.7969,-37.3047Q41.0645,-37.0605 39.6484,-31.8359Q37.6953,-27.2461 37.6953,-25.9766Q40.2832,-19.0918 41.4062,-17.3828Q41.4062,-16.8457 43.75,-11.3281Q46.2891,-4.24805 46.2891,-3.51562Q45.9473,-1.36719 44.1406,-1.36719Q41.7969,-1.36719 41.7969,-4.6875Q39.2578,-11.8164 35.9375,-19.3359Q35.3516,-21.1914 35.3516,-21.2891Q35.2539,-21.2891 32.2266,-16.0156Q31.4941,-15.5762 29.6875,-11.5234Q27.1973,-9.13086 26.3672,-6.44531Q23.877,-3.85742 23.2422,-1.5625Q20.8008,1.95312 19.1406,1.95312ZM49.8047,0.390625Q48.2422,0.390625 47.8516,-1.75781Q47.8516,-3.125 50.7812,-5.85938Q53.5156,-9.7168 55.2734,-11.7188Q55.7129,-13.0859 58.0078,-15.8203Q59.5215,-19.6777 62.1094,-23.6328Q62.1094,-24.1699 63.2812,-26.3672Q60.9375,-29.6875 58.5938,-34.9609Q55.6641,-38.5742 55.6641,-39.6484Q54.9805,-40.332 53.5156,-43.1641Q50.3906,-48.0957 50.3906,-48.8281Q50.3906,-50.3906 52.5391,-50.7812Q54.2969,-50.7812 55.6641,-47.2656Q57.2754,-44.9707 61.3281,-38.0859Q62.4023,-37.0117 65.0391,-30.8594Q65.332,-30.9082 66.7969,-35.5469Q69.5312,-40.9668 71.2891,-48.4375Q71.2891,-49.6094 73.0469,-54.2969Q73.0469,-57.4219 75.1953,-57.4219Q77.1484,-57.4219 77.1484,-54.4922Q77.1484,-53.7109 75.1953,-47.6562Q72.8516,-37.9395 71.875,-36.9141Q70.0684,-33.3984 68.9453,-29.1016Q67.7734,-27.8809 67.7734,-26.9531Q70.752,-22.7051 72.0703,-19.3359Q73.3398,-18.2129 74.0234,-15.2344Q75.5859,-13.623 80.2734,-3.90625Q81.0547,-3.125 81.0547,-1.75781Q80.4199,-0 78.9062,-0Q77.002,-0 75.7812,-3.71094Q74.0234,-6.73828 73.6328,-8.20312Q72.7051,-9.27734 69.5312,-15.4297Q69.5312,-15.9668 67.9688,-18.1641Q67.041,-21.0449 65.8203,-22.0703L65.625,-22.0703Q60.791,-12.5 59.9609,-11.5234Q59.5703,-11.4746 58.7891,-9.57031Q55.2246,-4.63867 51.3672,-0.390625Q51.3672,0.0976562 49.8047,0.390625Z"></path><path transform="translate(300 100)" d="M44.3359,-65.8203Q45.9473,-65.8203 47.0703,-63.0859Q51.1719,-58.6426 51.1719,-56.8359Q51.1719,-55.2734 49.0234,-54.8828Q47.5098,-54.8828 45.3125,-58.9844Q43.2617,-60.8398 42.1875,-63.8672Q42.1875,-65.4297 44.3359,-65.8203ZM77.5391,-54.8828L85.3516,-54.8828Q87.5,-54.541 87.5,-52.7344L87.5,-43.3594Q87.5,-43.1152 87.1094,-41.2109L87.1094,-38.8672Q86.7676,-36.7188 84.9609,-36.7188Q83.3984,-36.7188 83.0078,-38.8672L83.0078,-42.3828Q83.0078,-42.627 83.3984,-44.5312L83.3984,-50.7812L78.125,-50.7812Q68.457,-50.1953 68.1641,-50.1953Q50.5859,-50.3906 37.8906,-50.3906L26.1719,-50.3906Q22.3145,-50.3906 14.6484,-50L14.6484,-41.9922Q14.6484,-41.8457 15.0391,-40.4297Q14.6973,-38.2812 12.8906,-38.2812Q10.5469,-38.7695 10.5469,-40.625L10.5469,-48.2422Q10.5469,-50.2441 9.96094,-52.1484Q9.96094,-53.2715 11.9141,-54.2969Q13.623,-54.1016 13.8672,-54.1016Q21.7773,-54.4922 25.5859,-54.4922L40.625,-54.4922Q51.4648,-54.4922 67.5781,-54.2969Q67.8711,-54.2969 77.5391,-54.8828ZM27.7344,-41.4062L48.6328,-41.4062Q50,-41.4062 61.7188,-41.0156L64.8438,-41.0156Q71.0938,-41.0156 71.0938,-39.6484L71.2891,-38.6719Q71.2891,-37.0605 67.7734,-35.1562Q66.0156,-33.9844 66.0156,-33.7891Q65.1855,-33.7891 61.3281,-30.8594L58.3984,-29.1016Q58.0566,-29.1016 55.0781,-27.1484Q54.5898,-27.1484 52.9297,-25.9766L49.2188,-23.8281Q50.7324,-21.9727 51.7578,-16.9922L67.7734,-16.9922Q72.5586,-16.9922 75,-16.4062L79.2969,-16.4062Q85.4492,-15.8203 88.0859,-15.8203Q89.8438,-15.1855 89.8438,-13.6719Q89.8438,-12.0605 87.5,-11.7188Q78.5645,-12.3047 77.3438,-12.3047L74.4141,-12.3047Q71.9238,-12.8906 67.7734,-12.8906L52.3438,-12.8906L52.3438,0.976562Q51.3672,4.29688 51.3672,5.66406Q50.9277,6.49414 50.1953,8.78906Q49.5117,9.47266 48.4375,11.9141Q47.4121,13.4766 45.1172,13.4766Q43.1152,13.4766 37.5,10.5469Q36.5234,9.42383 36.5234,8.59375Q36.5234,7.03125 38.6719,6.64062Q39.7949,6.78711 44.5312,9.375L44.7266,9.375Q45.166,9.375 46.0938,6.83594Q46.9238,6.83594 47.8516,1.5625Q48.2422,1.5625 48.2422,0.585938L48.2422,-12.8906Q41.1621,-12.6953 37.5,-12.6953L25.3906,-12.6953Q21.0449,-11.9141 16.4062,-11.9141L11.9141,-11.9141Q11.084,-11.9141 9.76562,-11.7188Q8.00781,-12.3535 8.00781,-13.8672Q8.34961,-16.0156 10.1562,-16.0156L15.8203,-16.0156Q20.4102,-16.0156 25,-16.7969L37.3047,-16.7969Q40.3809,-16.7969 47.4609,-16.9922Q47.4609,-19.2383 44.3359,-23.8281L44.3359,-24.6094Q44.3359,-26.3672 48.0469,-27.7344Q50.8789,-29.9805 54.1016,-31.25Q59.8145,-34.8145 62.5,-36.7188L62.6953,-36.7188L62.6953,-36.9141L60.3516,-36.9141Q50.6836,-37.3047 49.4141,-37.3047L27.7344,-37.3047Q25.5859,-37.6465 25.5859,-39.4531Q25.5859,-41.0156 27.7344,-41.4062Z"></path><path transform="translate(400 100)" d="M15.1367,-63.0859Q16.0645,-63.0859 17.6758,-60.9375Q19.9219,-59.5215 21.582,-57.6172Q22.0215,-57.6172 25.0977,-54.8828Q25.4883,-54.248 25.4883,-53.7109L25.4883,-53.5156Q25.1465,-51.3672 23.3398,-51.3672Q22.5586,-51.3672 20.6055,-53.125L15.5273,-57.4219Q14.3066,-57.4219 12.9883,-60.7422L12.9883,-60.9375Q13.3301,-63.0859 15.1367,-63.0859ZM21.9727,-41.4062L22.5586,-41.4062Q24.707,-41.0645 24.707,-39.2578L24.707,-4.6875Q26.8555,-5.61523 29.0039,-6.83594Q36.7676,-11.0352 38.5742,-11.5234L38.9648,-11.5234Q41.1133,-11.1816 41.1133,-9.375Q41.1133,-7.95898 38.3789,-7.03125Q38.3301,-6.73828 34.4727,-5.07812L29.0039,-1.95312Q26.2207,-1.02539 24.9023,-0Q23.291,0.976562 22.168,0.976562Q21.1426,0.683594 20.4102,-0.585938Q20.6055,-4.49219 20.6055,-6.44531L20.6055,-36.9141L18.8477,-36.9141Q13.0859,-36.9141 6.73828,-36.5234Q4.98047,-37.1582 4.98047,-38.6719Q4.98047,-40.8203 10.0586,-40.8203Q13.3789,-41.0156 18.457,-41.0156L19.8242,-41.0156Q20.0684,-41.0156 21.9727,-41.4062ZM62.3047,-65.2344Q63.8672,-65.2344 64.2578,-63.0859L64.2578,-47.4609Q63.8672,-45.5566 63.8672,-45.3125L63.8672,-40.4297L91.4062,-40.4297Q93.5547,-40.0879 93.5547,-38.2812Q93.5547,-36.7188 91.4062,-36.3281L63.8672,-36.3281L63.8672,13.2812Q63.5254,15.4297 61.7188,15.4297Q60.1562,15.4297 59.7656,13.2812L59.7656,-36.3281L39.0625,-36.3281Q36.8652,-35.7422 34.5703,-35.7422Q32.8125,-36.377 32.8125,-37.8906Q32.8125,-40.0391 37.6953,-40.2344Q37.6953,-40.4297 38.2812,-40.4297L59.7656,-40.4297L59.7656,-45.8984Q59.7656,-46.1426 60.1562,-48.0469L60.1562,-63.0859Q60.498,-65.2344 62.3047,-65.2344Z"></path><path transform="translate(500 100)" d="M88.4766,-66.7969Q89.6973,-66.7969 90.4297,-65.0391Q90.4297,-56.1523 91.0156,-32.2266Q91.0156,-26.7578 90.625,-20.1172Q90.8203,-14.1113 90.8203,-11.9141Q90.8203,-5.46875 89.4531,10.5469Q89.4531,16.7969 86.7188,16.7969L86.5234,16.7969Q86.084,16.7969 81.0547,14.0625Q76.7578,13.0859 76.7578,10.7422L76.7578,10.5469Q77.3926,8.78906 78.9062,8.78906L85.3516,11.5234L85.3516,10.5469Q85.3516,6.98242 86.3281,-1.17188Q86.3281,-4.05273 86.7188,-12.1094Q86.7188,-13.1836 86.5234,-20.1172Q86.9141,-27.3438 86.9141,-32.4219Q86.5234,-44.9219 86.3281,-65.0391Q86.9629,-66.7969 88.4766,-66.7969ZM74.3164,-49.0723Q76.4648,-49.0723 76.4648,-45.5566Q76.6602,-28.7598 76.6602,-18.4082L76.6602,-9.0332Q76.3184,-6.88477 74.5117,-6.88477Q72.9492,-6.88477 72.5586,-9.0332L72.5586,-18.0176Q72.5586,-38.623 72.168,-47.3145Q72.8027,-49.0723 74.3164,-49.0723ZM23.2422,-65.8203Q25.0488,-65.8203 25.5859,-62.1094Q26.3672,-59.9121 27.5391,-54.2969Q28.0762,-54.2969 28.5156,-51.3672Q29.834,-48.9746 30.2734,-47.0703L31.25,-47.0703Q35.4004,-47.0703 37.8906,-47.6562L41.0156,-47.6562Q52.7344,-48.0469 54.1016,-48.0469L54.8828,-48.0469Q57.0312,-47.7051 57.0312,-45.8984Q57.0312,-44.3359 54.8828,-43.9453Q42.8711,-43.5547 40.2344,-43.5547L39.0625,-43.5547Q36.377,-42.9688 31.4453,-42.9688Q31.4453,-42.3828 35.3516,-32.4219Q35.3516,-31.7871 37.5,-27.3438Q37.5,-26.6602 39.6484,-22.6562Q40.0391,-20.8496 41.7969,-18.75Q41.7969,-18.2129 43.3594,-16.0156Q44.9707,-13.5742 45.1172,-13.0859Q46.582,-13.6719 52.7344,-20.5078Q52.7344,-20.8984 55.6641,-23.8281Q59.082,-29.9316 60.7422,-30.4688L61.1328,-30.4688Q62.6953,-30.4688 63.0859,-28.3203Q63.0859,-27.002 61.7188,-25.7812Q60.6445,-23.291 59.375,-22.2656Q59.375,-21.5332 55.4688,-17.5781Q55.4688,-17.041 50.9766,-12.6953Q48.7305,-10.2051 47.4609,-9.76562L47.4609,-9.57031L55.4688,0.976562Q57.5195,3.36914 61.3281,6.05469Q61.7188,6.73828 63.8672,8.00781Q63.6719,5.37109 63.6719,4.10156L63.6719,0.390625Q63.6719,-0.976562 63.2812,-3.32031Q63.916,-5.07812 65.4297,-5.07812Q67.7734,-5.07812 67.7734,-0.195312Q67.7734,7.86133 68.3594,11.7188L68.3594,12.3047Q68.0176,14.4531 66.2109,14.4531Q64.502,14.4531 62.5,12.1094Q60.0586,10.5957 55.2734,6.64062Q52.7832,4.73633 52.1484,3.32031Q47.7051,-2.09961 44.3359,-7.03125L44.1406,-7.03125Q40.1855,-4.49219 37.8906,-2.14844L31.6406,1.95312Q31.2988,2.53906 28.125,4.29688Q27.4414,5.12695 25,6.25Q22.0703,8.59375 17.3828,10.9375Q13.8184,13.6719 12.3047,13.6719L12.1094,13.6719Q9.96094,13.3301 9.96094,11.5234Q9.96094,10.0098 12.8906,9.17969Q12.8906,8.98438 17.1875,6.44531Q17.3828,6.00586 22.0703,3.51562Q23.0957,2.44141 25.7812,0.976562Q28.5645,-0.634766 31.25,-2.92969Q33.3496,-3.125 37.6953,-7.61719Q40.625,-9.42383 41.9922,-10.5469Q38.4766,-15.7227 38.4766,-16.0156Q37.1582,-17.8223 34.375,-24.0234Q33.9844,-24.2188 32.4219,-28.7109Q31.9824,-28.7109 31.25,-32.2266Q30.5664,-33.4473 26.9531,-42.7734Q18.4082,-42.5781 14.2578,-42.5781L11.1328,-42.5781Q8.98438,-42.9199 8.98438,-44.7266Q8.98438,-46.2891 11.1328,-46.6797L15.2344,-46.6797Q18.8965,-46.6797 25.9766,-46.875Q23.4375,-52.9297 21.4844,-61.7188Q21.1914,-61.7188 21.0938,-64.0625Q21.7285,-65.8203 23.2422,-65.8203ZM41.9922,-63.4766Q42.7734,-63.4766 50.7812,-59.5703Q52.002,-59.5703 52.5391,-57.2266Q52.5391,-55.6641 50.3906,-55.2734L43.1641,-58.5938Q39.8438,-59.9609 39.8438,-61.3281L39.8438,-61.5234Q39.8438,-63.0859 41.9922,-63.4766Z"></path><path transform="translate(0 200)" d="M53.9062,-68.5547Q55.6641,-67.9199 55.6641,-66.4062Q55.0781,-64.4531 53.7109,-64.4531Q35.3027,-64.2578 31.25,-64.2578L31.25,-46.0938Q31.25,-45.8984 31.6406,-44.5312L31.6406,-25.7812Q31.6406,-24.8047 31.25,-24.8047Q31.0547,-19.6289 31.0547,-16.6016L31.0547,-3.71094Q30.7129,-1.5625 28.9062,-1.5625Q27.3438,-1.5625 26.9531,-3.71094L26.9531,-15.4297Q26.9531,-18.9941 27.1484,-25.3906Q27.5391,-26.0254 27.5391,-26.5625L27.5391,-43.75Q27.5391,-43.9453 27.1484,-45.3125L27.1484,-63.8672L23.0469,-63.8672Q22.8516,-63.8672 21.4844,-63.4766L5.46875,-63.4766Q3.32031,-63.8184 3.32031,-65.625Q3.32031,-67.1875 5.46875,-67.5781L20.1172,-67.5781Q20.3125,-67.5781 21.6797,-67.9688L22.2656,-67.9688Q37.8906,-68.5547 53.9062,-68.5547Z"></path><path transform="translate(59 200)" d="M7.17773,-68.1641Q8.39844,-68.1641 9.13086,-66.4062Q9.13086,-63.3789 8.54492,-42.3828Q8.1543,-41.748 8.1543,-41.2109L8.1543,-39.2578Q9.96094,-40.7715 17.1387,-44.3359Q17.7734,-44.3359 19.873,-45.1172Q20.8496,-45.5078 26.9043,-46.0938Q26.9043,-46.2891 27.4902,-46.2891L34.9121,-46.2891Q39.6484,-44.8242 42.334,-40.4297Q43.6035,-40.4297 45.0684,-33.5938Q45.8496,-31.0547 45.8496,-30.8594Q46.2402,-19.4824 46.2402,-13.6719Q46.6309,-12.1094 46.6309,-11.7188L46.6309,-5.66406Q46.2402,-4.24805 46.0449,-1.5625Q45.166,-0.390625 44.0918,-0.390625Q42.5293,-0.390625 42.1387,-2.53906L42.1387,-5.46875Q42.1387,-5.66406 42.5293,-7.03125L42.5293,-11.1328Q42.1387,-13.0371 42.1387,-13.2812Q42.1387,-30.6152 40.9668,-32.4219Q39.7949,-38.4766 38.623,-38.4766Q35.3516,-42.1875 34.1309,-42.1875L28.8574,-42.1875Q28.6621,-42.1875 27.2949,-41.7969L25.1465,-41.7969Q19.6777,-41.2109 19.6777,-40.625Q15.9668,-39.4531 14.5996,-38.2812Q10.8887,-36.9141 9.32617,-33.3984Q8.98438,-33.3984 8.1543,-32.0312L8.1543,-3.125Q7.8125,-0.976562 6.00586,-0.976562Q4.44336,-0.976562 4.05273,-3.125L4.05273,-42.3828L4.44336,-43.75Q4.83398,-53.9062 5.0293,-66.4062Q5.66406,-68.1641 7.17773,-68.1641Z"></path><path transform="translate(108 200)" d="M21.7285,-47.2656L27.5879,-47.2656Q36.084,-45.5078 39.1113,-43.5547Q42.627,-41.1621 43.4082,-39.0625Q46.1914,-34.375 46.5332,-30.8594L46.5332,-26.7578Q46.5332,-23.7793 44.5801,-23.2422Q44.5801,-21.9238 37.1582,-20.5078L27.7832,-20.5078Q17.2363,-20.5078 8.64258,-22.0703L7.08008,-22.0703L6.88477,-20.7031L6.88477,-18.3594Q6.88477,-15.5762 9.0332,-12.3047L10.791,-10.1562Q11.4746,-10.1562 12.1582,-9.17969Q14.8438,-7.32422 21.3379,-5.46875Q24.6094,-4.83398 26.2207,-4.29688L32.8613,-4.29688Q40.0879,-5.71289 40.0879,-6.64062Q40.4297,-6.64062 42.2363,-8.39844Q42.8711,-8.78906 43.4082,-8.78906Q45.5566,-8.44727 45.5566,-6.64062Q44.9707,-4.00391 39.6973,-1.75781Q36.9629,-1.07422 36.9629,-0.78125Q35.498,-0.195312 33.252,-0.195312L27.1973,-0.195312Q25.0977,-0.195312 18.4082,-1.95312Q18.4082,-2.19727 15.8691,-2.73438Q12.8418,-3.90625 10.0098,-5.46875Q4.98047,-9.61914 4.3457,-12.3047Q3.66211,-12.3047 2.7832,-17.1875L2.7832,-20.1172Q3.56445,-28.0762 5.32227,-30.8594Q6.68945,-34.668 6.68945,-35.7422L9.0332,-39.8438Q9.0332,-40.1855 11.377,-42.1875Q18.1152,-46.875 20.3613,-46.875Q20.3613,-47.2168 21.7285,-47.2656ZM8.05664,-26.1719L9.81445,-26.1719Q17.4805,-24.6094 28.5645,-24.6094L35.5957,-24.6094Q38.8184,-24.6094 42.4316,-26.5625L42.4316,-29.8828Q42.4316,-32.666 38.916,-38.4766Q35.6445,-41.1133 32.8613,-41.6016Q30.6641,-42.3828 26.416,-43.1641L22.1191,-43.1641Q21.5332,-42.6758 19.5801,-42.3828Q15.5762,-40.2832 13.1348,-38.0859Q11.0352,-36.0352 8.05664,-26.1719Z"></path><path transform="translate(157 200)" d=""></path><path transform="translate(182 200)" d="M25.5859,-68.1641L33.5938,-68.1641Q41.0156,-68.1641 48.4375,-64.4531Q51.9531,-61.2793 51.9531,-59.9609Q52.8809,-58.0078 53.3203,-56.4453Q53.7598,-56.2012 54.4922,-52.9297Q54.6387,-52.9297 55.0781,-48.4375Q55.0781,-40.1367 52.3438,-37.5Q52.3438,-36.4258 48.0469,-33.2031Q47.0215,-32.373 45.1172,-31.4453Q45.1172,-31.0547 42.5781,-30.4688Q39.5508,-28.5156 33.5938,-28.5156L29.6875,-28.5156Q23.1445,-28.5156 21.875,-29.4922Q8.59375,-32.0312 8.59375,-35.1562Q8.59375,-36.7188 10.7422,-37.1094L11.1328,-37.1094Q15.6738,-35.1562 16.6016,-35.1562Q17.1387,-34.6191 21.0938,-33.9844Q24.8535,-32.6172 27.9297,-32.6172L32.8125,-32.6172Q38.4766,-32.6172 41.4062,-34.375Q46.0449,-35.8887 50,-41.0156Q50.9766,-43.457 50.9766,-48.4375Q50.1953,-54.5898 48.4375,-57.4219Q48.4375,-61.9629 35.1562,-64.0625L25.1953,-64.0625Q21.0449,-64.0625 18.5547,-63.4766L17.3828,-63.4766Q11.5723,-63.4766 8.98438,-63.0859L8.98438,-57.8125Q8.98438,-54.8828 8.78906,-49.8047Q8.59375,-49.2188 8.39844,-49.2188Q8.20312,-41.8457 8.20312,-38.0859L8.20312,-9.96094Q8.20312,-4.73633 9.17969,-4.10156Q9.375,-3.75977 9.375,-3.32031Q9.375,-1.75781 7.22656,-1.36719L6.83594,-1.36719Q4.63867,-1.36719 4.29688,-4.49219Q4.10156,-7.17773 4.10156,-10.3516L4.10156,-37.6953Q4.10156,-41.6504 4.29688,-49.6094Q4.88281,-50.293 4.88281,-58.2031L4.88281,-62.5Q2.53906,-62.7441 2.53906,-64.6484Q2.53906,-66.3574 5.46875,-66.7969Q5.46875,-67.2852 7.03125,-67.5781Q7.37305,-67.5781 8.00781,-67.1875Q12.4023,-67.5781 17.5781,-67.5781Q19.4824,-68.1641 25.5859,-68.1641Z"></path><path transform="translate(241 200)" d="M7.12891,-44.9219Q8.69141,-44.9219 9.08203,-42.7734Q8.69141,-35.5957 8.69141,-33.2031L8.69141,-29.8828Q8.98438,-29.8828 10.0586,-31.25Q11.377,-31.9824 15.918,-35.9375Q16.3574,-35.9375 17.0898,-36.7188Q25.293,-41.6992 32.3242,-42.5781L36.2305,-42.5781L41.3086,-41.2109Q41.8945,-40.5273 43.457,-39.8438Q45.2148,-38.8184 45.2148,-37.5Q45.2148,-35.9375 43.0664,-35.5469Q42.4805,-35.5469 38.1836,-37.8906Q37.0605,-37.8906 34.8633,-38.4766L32.7148,-38.4766Q23.291,-36.8164 15.7227,-30.2734Q9.66797,-25.7812 8.88672,-22.8516Q8.49609,-22.8027 8.49609,-22.4609L8.49609,-19.7266Q8.49609,-19.4824 8.10547,-17.5781L8.10547,-11.5234Q8.10547,-8.05664 7.91016,-2.92969Q7.27539,-1.17188 5.76172,-1.17188Q4.78516,-1.17188 3.80859,-2.73438Q4.00391,-9.47266 4.00391,-12.5L4.00391,-18.75Q4.00391,-19.2383 4.39453,-20.5078Q4.58984,-37.793 4.98047,-42.9688Q4.98047,-44.5312 7.12891,-44.9219Z"></path><path transform="translate(290 200)" d="M24.6582,-45.1172L24.8535,-45.1172Q28.5645,-43.8965 30.7129,-42.5781Q34.7656,-41.6992 37.9395,-38.4766Q38.5254,-38.4766 39.8926,-36.1328Q43.4082,-32.666 44.7754,-26.3672L44.7754,-16.9922Q42.8711,-10.0586 40.6738,-7.61719Q37.3535,-4.05273 31.6895,-2.34375Q30.8105,-1.95312 29.1504,-1.95312L27.5879,-1.95312Q19.8242,-1.95312 17.041,-3.51562Q14.6484,-4.00391 8.25195,-9.17969Q4.88281,-14.6973 4.15039,-17.9688Q3.56445,-19.3848 3.56445,-19.7266L3.56445,-22.2656Q4.15039,-26.123 5.71289,-30.4688Q5.71289,-32.8125 12.3535,-40.0391Q14.4043,-42.3828 22.1191,-44.5312Q22.5098,-45.0195 24.6582,-45.1172ZM7.66602,-20.8984L7.66602,-20.7031Q9.22852,-15.3809 10.9863,-12.8906Q11.0352,-12.207 13.3301,-10.3516Q19.5312,-6.25 23.291,-6.25Q25.1465,-6.05469 27.3926,-6.05469L28.1738,-6.05469Q32.2266,-6.05469 37.3535,-9.96094Q39.5996,-13.2812 40.6738,-18.3594L40.6738,-25.3906Q40.6738,-29.5898 34.4238,-36.1328Q32.9102,-37.5488 29.541,-38.6719Q24.8047,-40.8203 23.6816,-40.8203L17.2363,-38.2812Q16.1133,-38.2812 14.3066,-35.7422Q14.3066,-35.4004 12.3535,-33.7891L10.791,-31.6406Q8.05664,-25.7812 8.05664,-22.8516Q8.05664,-22.2656 7.66602,-20.8984Z"></path><path transform="translate(339 200)" d="M20.1172,-60.9863L21.2891,-60.9863Q23.4375,-60.6445 23.4375,-58.8379L23.4375,-56.8848Q22.9492,-54.541 21.0938,-54.541L18.75,-54.541Q16.6016,-54.8828 16.6016,-56.6895Q16.6016,-60.9863 20.1172,-60.9863ZM21.4844,-45.3125Q23.2422,-44.6777 23.2422,-43.1641L23.2422,-38.6719Q23.2422,-28.1738 23.0469,-7.22656L21.6797,-0.585938Q21.3867,-0.585938 20.7031,2.14844Q17.627,10.4492 14.4531,12.6953Q14.1113,12.6953 12.5,14.4531Q6.88477,16.6016 6.05469,16.6016Q3.90625,16.2598 3.90625,14.4531Q3.90625,12.6953 7.61719,11.9141Q12.3047,10.0098 14.0625,6.64062Q16.9922,1.75781 18.5547,-6.05469Q18.5547,-6.78711 18.9453,-8.00781Q19.1406,-28.0273 19.1406,-38.8672L19.1406,-39.8438Q18.3594,-39.8438 16.2109,-38.2812Q13.623,-37.207 8.59375,-34.1797Q7.32422,-33.7891 6.83594,-33.7891L6.25,-33.7891Q4.10156,-34.1309 4.10156,-35.9375Q4.10156,-37.6465 7.03125,-38.0859Q8.93555,-39.4531 10.3516,-39.8438Q10.791,-40.3809 18.5547,-44.3359Q20.3125,-45.3125 21.4844,-45.3125Z"></path><path transform="translate(368 200)" d="M21.7285,-47.2656L27.5879,-47.2656Q36.084,-45.5078 39.1113,-43.5547Q42.627,-41.1621 43.4082,-39.0625Q46.1914,-34.375 46.5332,-30.8594L46.5332,-26.7578Q46.5332,-23.7793 44.5801,-23.2422Q44.5801,-21.9238 37.1582,-20.5078L27.7832,-20.5078Q17.2363,-20.5078 8.64258,-22.0703L7.08008,-22.0703L6.88477,-20.7031L6.88477,-18.3594Q6.88477,-15.5762 9.0332,-12.3047L10.791,-10.1562Q11.4746,-10.1562 12.1582,-9.17969Q14.8438,-7.32422 21.3379,-5.46875Q24.6094,-4.83398 26.2207,-4.29688L32.8613,-4.29688Q40.0879,-5.71289 40.0879,-6.64062Q40.4297,-6.64062 42.2363,-8.39844Q42.8711,-8.78906 43.4082,-8.78906Q45.5566,-8.44727 45.5566,-6.64062Q44.9707,-4.00391 39.6973,-1.75781Q36.9629,-1.07422 36.9629,-0.78125Q35.498,-0.195312 33.252,-0.195312L27.1973,-0.195312Q25.0977,-0.195312 18.4082,-1.95312Q18.4082,-2.19727 15.8691,-2.73438Q12.8418,-3.90625 10.0098,-5.46875Q4.98047,-9.61914 4.3457,-12.3047Q3.66211,-12.3047 2.7832,-17.1875L2.7832,-20.1172Q3.56445,-28.0762 5.32227,-30.8594Q6.68945,-34.668 6.68945,-35.7422L9.0332,-39.8438Q9.0332,-40.1855 11.377,-42.1875Q18.1152,-46.875 20.3613,-46.875Q20.3613,-47.2168 21.7285,-47.2656ZM8.05664,-26.1719L9.81445,-26.1719Q17.4805,-24.6094 28.5645,-24.6094L35.5957,-24.6094Q38.8184,-24.6094 42.4316,-26.5625L42.4316,-29.8828Q42.4316,-32.666 38.916,-38.4766Q35.6445,-41.1133 32.8613,-41.6016Q30.6641,-42.3828 26.416,-43.1641L22.1191,-43.1641Q21.5332,-42.6758 19.5801,-42.3828Q15.5762,-40.2832 13.1348,-38.0859Q11.0352,-36.0352 8.05664,-26.1719Z"></path><path transform="translate(417 200)" d="M22.6074,-46.2891L31.5918,-46.2891Q36.5234,-45.4102 39.209,-43.9453Q41.6992,-42.4805 45.459,-38.0859Q47.0215,-34.7656 47.0215,-34.1797Q46.3867,-32.4219 44.873,-32.4219Q42.8711,-32.4219 41.748,-36.1328Q36.6699,-41.7969 31.7871,-41.7969Q31.7871,-42.1387 30.4199,-42.1875L23.3887,-42.1875Q18.7012,-41.5527 17.5293,-40.0391Q10.8398,-36.7188 8.74023,-31.0547Q8.74023,-30.127 7.76367,-28.7109Q6.78711,-23.584 6.78711,-22.4609L6.78711,-17.7734Q7.37305,-14.7949 10.498,-11.1328Q11.2305,-11.1328 12.8418,-9.375Q21.5332,-4.29688 26.5137,-4.29688L27.8809,-4.29688Q31.543,-4.29688 36.6699,-7.22656Q41.0156,-10.7422 41.3574,-12.5Q42.2363,-13.6719 43.3105,-13.6719Q44.873,-13.6719 45.2637,-11.5234L45.2637,-11.3281Q44.4336,-8.30078 41.5527,-5.85938Q36.9141,-1.9043 34.5215,-1.75781Q31.7871,-0.195312 28.6621,-0.195312L26.709,-0.195312Q22.6074,-0.195312 19.2871,-1.5625Q16.6504,-2.49023 12.4512,-4.6875Q10.6934,-5.37109 6.20117,-9.76562Q4.00391,-12.6953 3.4668,-15.0391Q2.88086,-15.0391 2.68555,-18.1641L2.68555,-22.4609Q2.68555,-25.3906 3.27148,-26.5625Q3.07617,-26.9043 3.07617,-27.3438Q4.05273,-30.9082 5.61523,-34.375L7.17773,-36.9141Q9.08203,-39.9902 11.084,-40.625Q12.1094,-42.041 18.1152,-45.3125Q18.5547,-45.3125 22.6074,-46.2891Z"></path><path transform="translate(464 200)" d="M25.1953,-64.0625Q26.7578,-64.0625 27.1484,-61.9141L27.1484,-61.3281Q26.7578,-57.9102 25.9766,-54.4922Q25.9766,-51.4648 25.1953,-50.3906L25.1953,-48.6328L25,-48.2422Q26.6602,-48.4375 27.5391,-48.4375Q31.8359,-48.4375 42.9688,-48.2422Q44.9219,-47.4121 44.9219,-45.8984Q44.9219,-44.9219 43.3594,-43.9453Q36.9141,-44.3359 29.1016,-44.3359Q25.4883,-44.1406 24.6094,-44.1406Q24.4141,-38.9648 24.4141,-35.9375Q24.2188,-35.3516 24.0234,-35.3516Q23.8281,-26.8066 23.8281,-22.6562L23.8281,-16.2109Q23.8281,-13.7207 26.3672,-9.375Q30.957,-5.85938 34.1797,-5.85938Q34.1797,-5.66406 34.9609,-5.66406L37.5,-5.66406Q39.8438,-5.66406 40.2344,-8.98438Q40.7227,-13.4766 42.3828,-13.4766L42.7734,-13.4766Q44.3359,-13.4766 44.7266,-11.3281Q44.7266,-7.8125 43.3594,-4.88281Q42.9199,-3.32031 39.4531,-1.95312Q38.8184,-1.5625 38.2812,-1.5625L34.375,-1.5625Q29.9805,-1.95312 24.8047,-5.07812Q20.7031,-9.52148 19.7266,-14.8438L19.7266,-22.0703Q19.7266,-26.9531 19.9219,-35.9375Q20.3125,-36.5723 20.3125,-37.1094L20.3125,-37.6953Q20.3125,-39.7461 20.5078,-43.9453L8.00781,-43.9453Q6.10352,-43.5547 5.85938,-43.5547L5.07812,-43.5547Q2.92969,-43.8965 2.92969,-45.7031Q2.92969,-47.5098 6.64062,-48.0469L20.8984,-48.0469Q20.8984,-49.3164 22.0703,-56.0547Q23.1934,-63.6719 23.8281,-63.6719L25.1953,-64.0625Z"></path><path transform="translate(513 200)" d=""></path><path transform="translate(538 200)" d="M53.3203,-67.1875Q55.0781,-66.5527 55.0781,-65.0391Q55.0781,-64.0625 53.5156,-63.0859Q48.3398,-62.8906 45.3125,-62.8906L8.00781,-62.8906L8.00781,-57.6172Q8.00781,-54.0527 7.8125,-47.6562Q7.42188,-47.0215 7.42188,-46.4844L7.42188,-34.7656Q12.4023,-35.7422 25.5859,-35.7422L40.625,-35.7422Q45.8496,-35.7422 50.7812,-34.375Q51.5625,-33.3496 51.5625,-32.6172Q51.5625,-31.3965 49.8047,-30.6641Q48.5352,-30.6641 43.3594,-31.4453Q41.9922,-31.6406 38.8672,-31.6406L25,-31.6406Q13.1836,-31.6406 9.76562,-30.8594L7.8125,-30.6641Q8.20312,-24.707 8.20312,-20.5078L8.20312,-5.85938Q8.20312,-0.976562 5.85938,-0.976562Q4.88281,-0.976562 3.90625,-2.53906Q4.10156,-5.76172 4.10156,-7.42188L4.10156,-20.5078Q4.10156,-28.4668 3.32031,-31.6406L3.32031,-47.2656Q3.36914,-48.2422 3.71094,-48.2422Q3.90625,-54.1992 3.90625,-57.0312L3.90625,-63.6719Q3.90625,-63.8672 4.10156,-63.8672L3.90625,-64.2578L3.90625,-64.4531Q3.90625,-66.7969 7.42188,-66.7969Q7.42188,-66.9922 8.20312,-66.9922L42.7734,-66.9922Q46.582,-66.9922 53.3203,-67.1875Z"></path><path transform="translate(597 200)" d="M24.6582,-45.1172L24.8535,-45.1172Q28.5645,-43.8965 30.7129,-42.5781Q34.7656,-41.6992 37.9395,-38.4766Q38.5254,-38.4766 39.8926,-36.1328Q43.4082,-32.666 44.7754,-26.3672L44.7754,-16.9922Q42.8711,-10.0586 40.6738,-7.61719Q37.3535,-4.05273 31.6895,-2.34375Q30.8105,-1.95312 29.1504,-1.95312L27.5879,-1.95312Q19.8242,-1.95312 17.041,-3.51562Q14.6484,-4.00391 8.25195,-9.17969Q4.88281,-14.6973 4.15039,-17.9688Q3.56445,-19.3848 3.56445,-19.7266L3.56445,-22.2656Q4.15039,-26.123 5.71289,-30.4688Q5.71289,-32.8125 12.3535,-40.0391Q14.4043,-42.3828 22.1191,-44.5312Q22.5098,-45.0195 24.6582,-45.1172ZM7.66602,-20.8984L7.66602,-20.7031Q9.22852,-15.3809 10.9863,-12.8906Q11.0352,-12.207 13.3301,-10.3516Q19.5312,-6.25 23.291,-6.25Q25.1465,-6.05469 27.3926,-6.05469L28.1738,-6.05469Q32.2266,-6.05469 37.3535,-9.96094Q39.5996,-13.2812 40.6738,-18.3594L40.6738,-25.3906Q40.6738,-29.5898 34.4238,-36.1328Q32.9102,-37.5488 29.541,-38.6719Q24.8047,-40.8203 23.6816,-40.8203L17.2363,-38.2812Q16.1133,-38.2812 14.3066,-35.7422Q14.3066,-35.4004 12.3535,-33.7891L10.791,-31.6406Q8.05664,-25.7812 8.05664,-22.8516Q8.05664,-22.2656 7.66602,-20.8984Z"></path><path transform="translate(646 200)" d="M7.12891,-44.9219Q8.69141,-44.9219 9.08203,-42.7734Q8.69141,-35.5957 8.69141,-33.2031L8.69141,-29.8828Q8.98438,-29.8828 10.0586,-31.25Q11.377,-31.9824 15.918,-35.9375Q16.3574,-35.9375 17.0898,-36.7188Q25.293,-41.6992 32.3242,-42.5781L36.2305,-42.5781L41.3086,-41.2109Q41.8945,-40.5273 43.457,-39.8438Q45.2148,-38.8184 45.2148,-37.5Q45.2148,-35.9375 43.0664,-35.5469Q42.4805,-35.5469 38.1836,-37.8906Q37.0605,-37.8906 34.8633,-38.4766L32.7148,-38.4766Q23.291,-36.8164 15.7227,-30.2734Q9.66797,-25.7812 8.88672,-22.8516Q8.49609,-22.8027 8.49609,-22.4609L8.49609,-19.7266Q8.49609,-19.4824 8.10547,-17.5781L8.10547,-11.5234Q8.10547,-8.05664 7.91016,-2.92969Q7.27539,-1.17188 5.76172,-1.17188Q4.78516,-1.17188 3.80859,-2.73438Q4.00391,-9.47266 4.00391,-12.5L4.00391,-18.75Q4.00391,-19.2383 4.39453,-20.5078Q4.58984,-37.793 4.98047,-42.9688Q4.98047,-44.5312 7.12891,-44.9219Z"></path><path transform="translate(695 200)" d=""></path><path transform="translate(720 200)" d="M5.22461,-67.1875Q8.1543,-67.1875 8.1543,-57.8125Q8.74023,-56.25 9.32617,-50.7812Q9.7168,-50.7812 9.7168,-49.8047L9.7168,-49.2188Q9.7168,-46.9238 10.498,-42.7734L10.498,-40.625Q11.2793,-38.3301 13.2324,-28.9062Q14.209,-26.4648 14.7949,-23.6328Q15.1855,-22.9492 16.9434,-17.1875Q17.4805,-16.2598 18.8965,-11.3281L21.2402,-7.61719Q21.875,-6.93359 22.8027,-6.25L22.998,-6.25Q27.4902,-13.4766 30.6152,-17.5781Q30.8105,-18.2129 33.1543,-22.2656Q33.4961,-22.2656 34.7168,-24.6094Q32.1777,-28.8086 32.1777,-30.0781Q31.2012,-30.0781 31.2012,-35.5469L31.2012,-35.9375Q31.2012,-38.4766 36.6699,-39.6484L37.6465,-39.6484Q42.5293,-37.793 42.5293,-35.5469L42.5293,-33.3984Q41.2598,-28.2715 39.4043,-24.4141Q40.6738,-23.3887 42.1387,-19.9219Q44.4336,-17.041 45.6543,-14.4531Q46.3867,-14.1113 47.2168,-12.3047Q49.3164,-9.08203 52.0996,-6.64062L52.2949,-6.64062Q52.8809,-7.56836 54.834,-13.2812Q58.3496,-23.3887 58.7402,-25.5859Q58.9844,-25.5859 60.3027,-29.2969Q60.8398,-29.6875 62.2559,-34.7656Q62.6465,-36.4258 63.0371,-36.9141L63.0371,-38.4766Q64.7949,-44.043 64.7949,-45.7031Q65.9668,-54.6875 66.9434,-57.4219Q66.9434,-58.3008 66.748,-59.9609Q67.1387,-61.1328 67.5293,-65.4297Q68.4082,-66.6016 69.4824,-66.6016Q71.0449,-66.6016 71.4355,-64.4531L71.4355,-64.2578Q71.4355,-61.7676 70.8496,-60.3516Q71.0449,-58.6914 71.0449,-57.6172L71.0449,-57.0312Q69.4824,-51.6113 69.4824,-48.0469Q69.0918,-47.998 69.0918,-47.6562L69.0918,-47.2656Q69.0918,-44.5801 67.1387,-37.3047Q66.5527,-33.3496 64.7949,-29.1016Q64.7949,-28.418 63.4277,-25.9766Q58.9355,-11.4746 55.4199,-3.32031Q54.5898,-1.17188 53.0762,-1.17188Q51.8555,-1.17188 47.6074,-5.07812Q44.1406,-9.13086 40.3809,-15.2344Q39.5508,-15.8203 37.4512,-20.1172L37.0605,-20.3125Q37.0605,-20.166 35.1074,-17.3828Q32.5684,-12.4512 30.0293,-9.76562Q28.2227,-6.39648 26.123,-3.71094Q25,-1.36719 22.998,-1.36719L22.8027,-1.36719Q20.8008,-1.36719 18.1152,-5.07812Q17.5781,-5.07812 15.9668,-8.39844Q15.2832,-8.69141 11.8652,-19.5312Q9.7168,-25.9766 8.54492,-31.0547Q7.56836,-34.668 6.98242,-38.4766Q6.5918,-38.5254 6.39648,-39.8438L6.39648,-41.9922Q5.61523,-48.584 4.05273,-58.2031Q4.05273,-60.4004 3.07617,-65.4297Q3.71094,-67.1875 5.22461,-67.1875ZM35.3027,-34.375Q35.3027,-32.959 36.6699,-29.8828L36.6699,-29.1016L36.8652,-29.1016Q38.4277,-33.3008 38.4277,-34.375L38.4277,-34.5703Q38.4277,-34.8633 37.2559,-35.5469L36.6699,-35.5469Q35.3027,-34.9121 35.3027,-34.375Z"></path><path transform="translate(788 200)" d="M21.7285,-47.2656L27.5879,-47.2656Q36.084,-45.5078 39.1113,-43.5547Q42.627,-41.1621 43.4082,-39.0625Q46.1914,-34.375 46.5332,-30.8594L46.5332,-26.7578Q46.5332,-23.7793 44.5801,-23.2422Q44.5801,-21.9238 37.1582,-20.5078L27.7832,-20.5078Q17.2363,-20.5078 8.64258,-22.0703L7.08008,-22.0703L6.88477,-20.7031L6.88477,-18.3594Q6.88477,-15.5762 9.0332,-12.3047L10.791,-10.1562Q11.4746,-10.1562 12.1582,-9.17969Q14.8438,-7.32422 21.3379,-5.46875Q24.6094,-4.83398 26.2207,-4.29688L32.8613,-4.29688Q40.0879,-5.71289 40.0879,-6.64062Q40.4297,-6.64062 42.2363,-8.39844Q42.8711,-8.78906 43.4082,-8.78906Q45.5566,-8.44727 45.5566,-6.64062Q44.9707,-4.00391 39.6973,-1.75781Q36.9629,-1.07422 36.9629,-0.78125Q35.498,-0.195312 33.252,-0.195312L27.1973,-0.195312Q25.0977,-0.195312 18.4082,-1.95312Q18.4082,-2.19727 15.8691,-2.73438Q12.8418,-3.90625 10.0098,-5.46875Q4.98047,-9.61914 4.3457,-12.3047Q3.66211,-12.3047 2.7832,-17.1875L2.7832,-20.1172Q3.56445,-28.0762 5.32227,-30.8594Q6.68945,-34.668 6.68945,-35.7422L9.0332,-39.8438Q9.0332,-40.1855 11.377,-42.1875Q18.1152,-46.875 20.3613,-46.875Q20.3613,-47.2168 21.7285,-47.2656ZM8.05664,-26.1719L9.81445,-26.1719Q17.4805,-24.6094 28.5645,-24.6094L35.5957,-24.6094Q38.8184,-24.6094 42.4316,-26.5625L42.4316,-29.8828Q42.4316,-32.666 38.916,-38.4766Q35.6445,-41.1133 32.8613,-41.6016Q30.6641,-42.3828 26.416,-43.1641L22.1191,-43.1641Q21.5332,-42.6758 19.5801,-42.3828Q15.5762,-40.2832 13.1348,-38.0859Q11.0352,-36.0352 8.05664,-26.1719Z"></path><path transform="translate(837 200)" d="M9.17969,-67.5781Q10.7422,-67.5781 11.1328,-65.4297L11.1328,-65.2344Q9.17969,-53.7598 8.78906,-48.0469Q8.44727,-48.0469 8.39844,-46.0938L8.39844,-42.7734Q8.39844,-41.748 8.20312,-39.4531Q14.5508,-43.9941 19.7266,-45.1172Q20.752,-45.459 24.6094,-45.8984L29.1016,-45.8984Q33.3984,-45.8984 37.8906,-41.6016Q38.916,-41.6016 42.7734,-36.1328L46.2891,-29.2969L46.2891,-13.4766Q46.2891,-9.81445 41.7969,-4.49219Q38.1348,-1.5625 37.5,-1.5625L32.8125,-0.195312Q30.6641,-0 28.9062,-0L22.0703,-0Q17.7246,-0 16.4062,-0.976562Q10.8887,-2.34375 7.61719,-5.27344L7.42188,-5.27344L7.42188,-4.88281Q7.42188,-4.6875 7.8125,-3.32031Q7.8125,-1.75781 5.66406,-1.36719L5.46875,-1.36719Q3.32031,-1.70898 3.32031,-3.51562L3.32031,-26.1719Q3.32031,-26.3672 3.71094,-27.7344Q4.29688,-51.7578 5.07812,-51.7578Q5.07812,-53.2227 6.05469,-60.5469Q6.68945,-64.502 7.03125,-65.625Q7.03125,-67.1875 9.17969,-67.5781ZM7.8125,-30.4688L7.8125,-26.9531Q7.42188,-25.5859 7.42188,-25.3906L7.42188,-11.5234Q8.34961,-11.5234 9.76562,-8.78906Q11.7676,-6.88477 16.0156,-5.46875Q19.6777,-4.10156 21.0938,-4.10156L27.1484,-4.10156Q35.3027,-4.10156 37.3047,-6.44531Q39.1602,-6.93359 41.4062,-11.3281Q42.1875,-12.3535 42.1875,-13.4766L42.1875,-28.3203Q40.7227,-30.7129 39.2578,-33.9844Q35.8887,-38.623 31.6406,-41.0156Q29.9316,-41.7969 29.1016,-41.7969L25.9766,-41.7969Q20.8008,-41.7969 16.6016,-39.4531Q15.5273,-39.4531 10.7422,-36.1328Q9.27734,-34.8633 8.39844,-32.6172Q7.8125,-32.6172 7.8125,-30.4688Z"></path></svg>